HIERARCHY
ROOT hip
{
  OFFSET 0 0 0
  CHANNELS 6 Xposition Yposition Zposition Zrotation Yrotation Xrotation
  JOINT abdomen
  {
    OFFSET 0 20.6881 -0.73152
    CHANNELS 3 Zrotation Xrotation Yrotation
    JOINT chest
    {
      OFFSET 0 11.7043 -0.48768
      CHANNELS 3 Zrotation Xrotation Yrotation
      JOINT neck
      {
        OFFSET 0 22.1894 -2.19456
        CHANNELS 3 Zrotation Xrotation Yrotation
        JOINT head
        {
          OFFSET -0.24384 7.07133 1.2192
          CHANNELS 3 Zrotation Xrotation Yrotation
          JOINT leftEye
          {
            OFFSET 4.14528 8.04674 8.04672
            CHANNELS 3 Zrotation Xrotation Yrotation
            End Site
            {
              OFFSET 1 0 0
            }
          }
          JOINT rightEye
          {
            OFFSET -3.6576 8.04674 8.04672
            CHANNELS 3 Zrotation Xrotation Yrotation
            End Site
            {
              OFFSET 1 0 0
            }
          }
        }
      }
      JOINT rCollar
      {
        OFFSET -2.68224 19.2634 -4.8768
        CHANNELS 3 Zrotation Xrotation Yrotation
        JOINT rShldr
        {
          OFFSET -8.77824 -1.95073 1.46304
          CHANNELS 3 Zrotation Xrotation Yrotation
          JOINT rForeArm
          {
            OFFSET -28.1742 -1.7115 0.48768
            CHANNELS 3 Zrotation Xrotation Yrotation
            JOINT rHand
            {
              OFFSET -22.5879 0.773209 7.07136
              CHANNELS 3 Zrotation Xrotation Yrotation
              JOINT rThumb1
              {
                OFFSET -1.2192 -0.487915 3.41376
                CHANNELS 3 Zrotation Xrotation Yrotation
                JOINT rThumb2
                {
                  OFFSET -3.37035 -0.52449 3.41376
                  CHANNELS 3 Zrotation Xrotation Yrotation
                  End Site
                  {
                    OFFSET -1.78271 -1.18214 1.43049
                  }
                }
              }
              JOINT rIndex1
              {
                OFFSET -7.75947 0.938293 5.60832
                CHANNELS 3 Zrotation Xrotation Yrotation
                JOINT rIndex2
                {
                  OFFSET -2.54057 -0.884171 1.56538
                  CHANNELS 3 Zrotation Xrotation Yrotation
                  End Site
                  {
                    OFFSET -1.62519 -0.234802 1.16502
                  }
                }
              }
              JOINT rMid1
              {
                OFFSET -8.24714 1.18213 3.41376
                CHANNELS 3 Zrotation Xrotation Yrotation
                JOINT rMid2
                {
                  OFFSET -3.10165 -0.590103 1.0647
                  CHANNELS 3 Zrotation Xrotation Yrotation
                  End Site
                  {
                    OFFSET -2.48547 -0.328903 0.83742
                  }
                }
              }
              JOINT rRing1
              {
                OFFSET -8.82822 0.546677 1.51678
                CHANNELS 3 Zrotation Xrotation Yrotation
                JOINT rRing2
                {
                  OFFSET -2.60934 -0.819778 -0.0198488
                  CHANNELS 3 Zrotation Xrotation Yrotation
                  End Site
                  {
                    OFFSET -2.33842 -0.294052 0.168128
                  }
                }
              }
              JOINT rPinky1
              {
                OFFSET -8.27202 -0.0477905 -0.4584
                CHANNELS 3 Zrotation Xrotation Yrotation
                JOINT rPinky2
                {
                  OFFSET -1.82734 -0.647385 -0.700984
                  CHANNELS 3 Zrotation Xrotation Yrotation
                  End Site
                  {
                    OFFSET -1.69225 -0.51767 -0.607171
                  }
                }
              }
            }
          }
        }
      }
      JOINT lCollar
      {
        OFFSET 2.68224 19.2634 -4.8768
        CHANNELS 3 Zrotation Xrotation Yrotation
        JOINT lShldr
        {
          OFFSET 8.77824 -1.95073 1.46304
          CHANNELS 3 Zrotation Xrotation Yrotation
          JOINT lForeArm
          {
            OFFSET 28.1742 -1.7115 0.48768
            CHANNELS 3 Zrotation Xrotation Yrotation
            JOINT lHand
            {
              OFFSET 22.5879 0.773209 7.07136
              CHANNELS 3 Zrotation Xrotation Yrotation
              JOINT lThumb1
              {
                OFFSET 1.2192 -0.487915 3.41376
                CHANNELS 3 Zrotation Xrotation Yrotation
                JOINT lThumb2
                {
                  OFFSET 3.37035 -0.52449 3.41376
                  CHANNELS 3 Zrotation Xrotation Yrotation
                  End Site
                  {
                    OFFSET 1.78271 -1.18214 1.43049
                  }
                }
              }
              JOINT lIndex1
              {
                OFFSET 7.75947 0.938293 5.60832
                CHANNELS 3 Zrotation Xrotation Yrotation
                JOINT lIndex2
                {
                  OFFSET 2.54057 -0.884171 1.56538
                  CHANNELS 3 Zrotation Xrotation Yrotation
                  End Site
                  {
                    OFFSET 1.62519 -0.234802 1.16502
                  }
                }
              }
              JOINT lMid1
              {
                OFFSET 8.24714 1.18213 3.41376
                CHANNELS 3 Zrotation Xrotation Yrotation
                JOINT lMid2
                {
                  OFFSET 3.10165 -0.590103 1.0647
                  CHANNELS 3 Zrotation Xrotation Yrotation
                  End Site
                  {
                    OFFSET 2.48547 -0.328903 0.83742
                  }
                }
              }
              JOINT lRing1
              {
                OFFSET 8.82822 0.546677 1.51678
                CHANNELS 3 Zrotation Xrotation Yrotation
                JOINT lRing2
                {
                  OFFSET 2.60934 -0.819778 -0.0198488
                  CHANNELS 3 Zrotation Xrotation Yrotation
                  End Site
                  {
                    OFFSET 2.33842 -0.294052 0.168128
                  }
                }
              }
              JOINT lPinky1
              {
                OFFSET 8.27202 -0.0477905 -0.4584
                CHANNELS 3 Zrotation Xrotation Yrotation
                JOINT lPinky2
                {
                  OFFSET 1.82734 -0.647385 -0.700984
                  CHANNELS 3 Zrotation Xrotation Yrotation
                  End Site
                  {
                    OFFSET 1.69225 -0.51767 -0.607171
                  }
                }
              }
            }
          }
        }
      }
    }
  }
  JOINT rButtock
  {
    OFFSET -8.77824 4.35084 1.2192
    CHANNELS 3 Zrotation Xrotation Yrotation
    JOINT rThigh
    {
      OFFSET 0 -1.70687 -2.19456
      CHANNELS 3 Zrotation Xrotation Yrotation
      JOINT rShin
      {
        OFFSET 0 -36.8199 0.73152
        CHANNELS 3 Zrotation Xrotation Yrotation
        JOINT rFoot
        {
          OFFSET 0.73152 -45.1104 -5.12064
          CHANNELS 3 Zrotation Xrotation Yrotation
          End Site
          {
            OFFSET -1.1221 -3.69964 12.103
          }
        }
      }
    }
  }
  JOINT lButtock
  {
    OFFSET 8.77824 4.35084 1.2192
    CHANNELS 3 Zrotation Xrotation Yrotation
    JOINT lThigh
    {
      OFFSET 0 -1.70687 -2.19456
      CHANNELS 3 Zrotation Xrotation Yrotation
      JOINT lShin
      {
        OFFSET 0 -36.8199 0.73152
        CHANNELS 3 Zrotation Xrotation Yrotation
        JOINT lFoot
        {
          OFFSET -0.73152 -45.1104 -5.12064
          CHANNELS 3 Zrotation Xrotation Yrotation
          End Site
          {
            OFFSET 1.1221 -3.69964 12.103
          }
        }
      }
    }
  }
}
MOTION
Frames:	4
Frame Time:	0.00833333
5.29997 83.6554 6.1331 0.0 0.0 0.0 -2.30016 -0.000942047 -0.0623527 -0.634479 0.00830843 -0.109827 7.03368e-14 7.95139e-16 -3.9757e-16 2.11873e-13 9.54166e-15 -1.12282e-15 -0.0 0.0 0.0 -0.0 0.0 0.0 3.55332e-14 1.10846e-16 4.96962e-17 7.42416e-13 2.21769e-15 -3.97569e-16 1.27404e-11 -3.74013e-12 -1.90833e-13 1.45953e-10 4.23866e-12 -5.34333e-13 3.44248e-10 1.08253e-12 -1.59664e-12 5.94491e-10 1.86381e-12 -2.77106e-12 3.44251e-10 1.08298e-12 -1.59982e-12 7.73091 5.47488 0.417314 3.44247e-10 1.08159e-12 -1.59028e-12 2.90554 0.965183 0.102902 3.44254e-10 1.08278e-12 -1.59902e-12 10.2786 0.731801 0.0259123 3.44238e-10 1.08616e-12 -1.59664e-12 2.22167 -0.733487 -0.20892 3.53358e-14 1.11816e-16 -2.48481e-16 7.38563e-13 1.62134e-15 -2.38542e-15 1.2765e-11 3.88246e-12 -1.90833e-13 1.4591e-10 -3.4097e-12 -5.31153e-13 3.44214e-10 1.03283e-12 -1.60936e-12 5.94446e-10 1.78747e-12 -2.77344e-12 3.44207e-10 1.03646e-12 -1.59982e-12 -7.73091 5.47488 -0.417314 3.44214e-10 1.03229e-12 -1.61254e-12 -2.90554 0.965183 -0.102902 3.44205e-10 1.03259e-12 -1.60379e-12 -10.2786 0.731801 -0.0259123 3.44219e-10 1.03607e-12 -1.603e-12 -2.22167 -0.733487 0.20892 -2.03217e-16 0.0 -3.88251e-19 -1.28272 -1.92859 0.00418747 -0.00872926 -2.07863 -0.0717826 -0.462932 3.99877 0.133063 2.03217e-16 0.0 3.88251e-19 -2.21845 -7.92848 0.228511 -0.0057139 8.7892 -0.144988 0.509474 -0.869092 -0.0399121
4.69309 83.3259 5.70877 -0.6109 -2.9232 1.2792 -2.64035 1.95061 0.35772 0.21279 -1.99258 0.0193193 -3.1663 1.71528 -2.35683 2.69404 4.11242 -4.47682 -0.0 0.0 0.0 -0.0 0.0 0.0 2.11136e-14 -1.04923e-14 -1.02149e-15 14.3742 -4.70863 -2.199 -8.80628 -5.68335 11.4472 0.0962973 6.90465 0.945271 3.94226e-10 -1.96166e-10 6.81641e-11 6.8188e-10 -3.4106e-10 1.14893e-10 3.9423e-10 -1.96164e-10 6.81583e-11 7.73091 5.47488 0.417314 3.94225e-10 -1.96166e-10 6.81697e-11 2.90554 0.965183 0.102902 3.94231e-10 -1.96165e-10 6.81623e-11 10.2786 0.731801 0.0259123 3.94217e-10 -1.96163e-10 6.81676e-11 2.22167 -0.733487 -0.20892 2.09858e-14 -1.04916e-14 -1.28783e-15 -13.2973 21.4437 4.12001 21.1297 -18.9565 -15.1348 -0.219938 -10.4528 1.38279 3.20342e-10 -8.40314e-12 -6.58303e-11 5.54601e-10 -9.09865e-12 -1.11497e-10 3.20337e-10 -8.39967e-12 -6.58228e-11 -7.73091 5.47488 -0.417314 3.20339e-10 -8.4095e-12 -6.58338e-11 -2.90554 0.965183 -0.102902 3.20334e-10 -8.40193e-12 -6.58237e-11 -10.2786 0.731801 -0.0259123 3.20346e-10 -8.39817e-12 -6.58228e-11 -2.22167 -0.733487 0.20892 -2.03217e-16 0.0 -3.88251e-19 -2.5261 -1.66155 3.94595 -0.00709605 0.536587 -0.00218155 -0.688884 1.75591 -3.70158 2.03217e-16 0.0 3.88251e-19 -1.86747 -6.51283 -2.50111 -0.00379655 9.69282 -0.164197 0.561953 -2.53771 2.83756
4.58861 83.3304 5.72253 -0.6235 -2.8373 1.2076 -3.02644 4.00876 0.801025 1.12164 -4.10627 0.155848 -6.35705 3.52382 -4.85634 6.24611 8.3751 -9.28937 -0.0 0.0 0.0 -0.0 0.0 0.0 5.73167e-15 -2.18179e-14 -2.74882e-15 29.1284 -9.70696 -4.56237 -15.6959 -10.9521 23.9134 -0.0573107 14.2449 1.99801 4.58102e-10 -4.1838e-10 1.48893e-10 7.93473e-10 -7.27444e-10 2.51135e-10 4.58108e-10 -4.18378e-10 1.48885e-10 7.73091 5.47488 0.417314 4.58102e-10 -4.1838e-10 1.48898e-10 2.90554 0.965183 0.102902 4.58108e-10 -4.18379e-10 1.48892e-10 10.2786 0.731801 0.0259123 4.58095e-10 -4.18378e-10 1.489e-10 2.22167 -0.733487 -0.20892 5.68018e-15 -2.18173e-14 -2.97866e-15 -31.8385 43.7915 10.9507 31.2664 -34.417 -36.5157 0.134704 -21.5538 3.0167 3.04054e-10 -6.78619e-13 -1.30806e-10 5.27858e-10 1.02412e-11 -2.21148e-10 3.04052e-10 -6.75267e-13 -1.30801e-10 -7.73091 5.47488 -0.417314 3.04047e-10 -6.91371e-13 -1.3081e-10 -2.90554 0.965183 -0.102902 3.04047e-10 -6.75759e-13 -1.30798e-10 -10.2786 0.731801 -0.0259123 3.04057e-10 -6.71663e-13 -1.30797e-10 -2.22167 -0.733487 0.20892 -2.03217e-16 0.0 -3.88251e-19 -3.8857 -1.37557 8.11379 -0.0122813 3.29955 0.0715285 -1.25335 -0.605768 -7.74811 2.03217e-16 0.0 3.88251e-19 -1.35255 -5.00524 -5.36587 -0.00111268 10.6412 -0.184595 0.799293 -4.28427 5.88974
4.5198 83.3383 5.74273 -0.6131 -2.8026 1.1044 -3.40694 5.85256 1.20352 1.93449 -5.99429 0.279104 -9.07532 5.11096 -7.09568 10.0269 12.0331 -13.7026 -0.0 0.0 0.0 -0.0 0.0 0.0 -7.72554e-15 -3.16987e-14 -3.16386e-15 42.0127 -14.0414 -6.77816 -19.8864 -14.3196 35.4271 -0.434346 20.6906 3.00951 4.94181e-10 -5.90662e-10 2.07685e-10 8.5666e-10 -1.02691e-09 3.50221e-10 4.94188e-10 -5.90659e-10 2.07675e-10 7.73091 5.47488 0.417314 4.94182e-10 -5.90662e-10 2.0769e-10 2.90554 0.965183 0.102902 4.94187e-10 -5.90661e-10 2.07685e-10 10.2786 0.731801 0.0259123 4.94175e-10 -5.90661e-10 2.07696e-10 2.22167 -0.733487 -0.20892 -7.71417e-15 -3.16984e-14 -3.36653e-15 -58.0399 62.1688 25.2866 30.1632 -38.7886 -60.8234 1.07072 -31.2789 4.77481 2.72597e-10 -2.72751e-11 -1.94272e-10 4.74912e-10 -3.08709e-11 -3.28944e-10 2.72597e-10 -2.72719e-11 -1.94269e-10 -7.73091 5.47488 -0.417314 2.72587e-10 -2.72931e-11 -1.94276e-10 -2.90554 0.965183 -0.102902 2.72591e-10 -2.7271e-11 -1.94264e-10 -10.2786 0.731801 -0.0259123 2.72599e-10 -2.72666e-11 -1.94262e-10 -2.22167 -0.733487 0.20892 -2.03217e-16 0.0 -3.88251e-19 -5.12288 -1.11512 11.8268 -0.022927 5.76701 0.137623 -2.03624 -2.66548 -11.3775 2.03217e-16 0.0 3.88251e-19 -0.76058 -3.66465 -7.92384 0.00189563 11.5 -0.203064 1.16981 -5.81814 8.62893
